<?xml version="1.0" encoding="UTF-8"?>
<svg id="Layer_1" data-name="Layer 1" xmlns="http://www.w3.org/2000/svg" xmlns:xlink="http://www.w3.org/1999/xlink" viewBox="0 0 1920 1080">
  <defs>
    <style>
      .cls-1, .cls-2, .cls-3, .cls-4 {
        fill: none;
      }

      .cls-5 {
        fill: #f24e00;
      }

      .cls-6 {
        fill: #ffb0d7;
      }

      .cls-7 {
        fill: #a69400;
      }

      .cls-8 {
        fill: #f14e00;
      }

      .cls-9 {
        clip-path: url(#clippath-1);
      }

      .cls-10 {
        clip-path: url(#clippath-3);
      }

      .cls-11 {
        clip-path: url(#clippath-2);
      }

      .cls-2 {
        stroke: #a69400;
        stroke-linecap: round;
        stroke-linejoin: round;
      }

      .cls-2, .cls-3, .cls-4 {
        stroke-width: 7px;
      }

      .cls-12 {
        fill: #f8b848;
      }

      .cls-13 {
        fill: #f5e9dc;
      }

      .cls-14 {
        fill: #cecfd4;
      }

      .cls-3 {
        stroke: #ff812c;
      }

      .cls-3, .cls-4 {
        stroke-miterlimit: 10;
      }

      .cls-15 {
        fill: #ff812c;
      }

      .cls-16 {
        clip-path: url(#clippath);
      }

      .cls-4 {
        stroke: #f14e00;
      }
    </style>
    <clipPath id="clippath">
      <polygon class="cls-1" points="748.41 525.46 689.18 682.1 726.27 663.28 814.83 673.79 748.41 525.46"/>
    </clipPath>
    <clipPath id="clippath-1">
      <polygon class="cls-1" points="1133.61 853.94 1184.68 1021.27 918.67 1030.3 869.49 688 1022.07 472.19 1133.61 853.94"/>
    </clipPath>
    <clipPath id="clippath-2">
      <ellipse class="cls-1" cx="818.31" cy="937.17" rx="62.47" ry="28.29" transform="translate(-86.75 83.48) rotate(-5.55)"/>
    </clipPath>
    <clipPath id="clippath-3">
      <ellipse class="cls-1" cx="670.19" cy="939.41" rx="61.22" ry="28.29"/>
    </clipPath>
  </defs>
  <path class="cls-14" d="M238.26,1012.2c.13-33.24,4.37-59.99,8.16-78.06,8.27-39.46,20.31-76.49,41.97-100.44,9.09-10.05,26.59-25.24,53.56-27.71,33.56-3.07,68.23,20.12,89.12,58.25,4.6-80.83,26.09-138.78,44.02-170.94,23.89-42.87,38.33-51.54,52.8-57.01,62.51-23.65,102.28,23.56,135.45,55.78,16.88,16.39,31.24,29.88,40,41.03,15.7-114.26,99.82-195.21,188.92-198.36,77.5-2.74,132.41,54.31,143.25,66.03,1.35-5.01,25.74-90.37,98.86-108.27,0,0,27.1-6.96,58.37.94,115.54,29.2,188.02,296.27,192.06,311.63,7.91-10.05,38.08-46,83-47.16,0,0,17.44-.45,33.33,5.66,44.74,17.21,68.28,123.33,64.14,259.06-126.81-.49-253.61-.96-380.42-1.41-281.52-.99-563.04-1.89-844.56-2.68-34-2.11-68.01-4.22-102.01-6.33Z"/>
  <g>
    <path class="cls-5" d="M754.22,567.94l-66.94-2.67c.45-3.87,1.63-12.59,1.95-16.38,2.13-25.41,4.83-52.81,4.41-77.89-.05-3.22-.37-9.63-1.62-12.43-.78-1.75-3.7-2.35-6.19-1.38-13.54,5.29-19.91,57.84-19.45,71.4-.53,18.8-.59,22.61-.4,33.29-.95,1.18-6.85,1.74-8.76,1.87-9.89.64-23.07.84-33,.67-3.93-.07-24.73-.75-25.98-2.94l-9.83-180.74,3.69-.06,31.86-.82,4.06,39.23c6.71-7.2,11.19-15.85,19-22.13,23.62-18.97,67.64-28.95,88.77-1.83,11.77,15.11,16.52,57.33,17.32,77.16.94,23.22,1.41,46.04,1.15,69.96-.08,7.95.49,17.8-.04,25.72Z"/>
    <path class="cls-5" d="M386.29,398.43c3.76,4.99,7.03,14.49,7.03,14.49,0,0-26.8,11.41-43.29,20.49-8.46-7.18-17.26-16.02-28.11-19.62-16.51-5.47-30.28,2.9-10.81,13.23,31.92,16.94,72.79,15.08,85.59,57.78,21.47,71.67-83,107.54-135.35,75.83-30.33-18.37-42.73-60.26-40.33-94.08l47.17-2.36c8.28,9.07,19.14,24.02,34.95,21.71,18.45-2.69-2.71-17.46-9.16-20.97-22.35-12.18-70.92-19.41-58.68-55.12,4.02-11.71,15.96-19.7,22.7-23.54,32.7-18.65,104.31-19.73,128.32,12.16Z"/>
    <path class="cls-5" d="M116.55,372.22l48.03-7.09c-3.28-16.57-11.55-41.78,2.04-54.93,3.97-3.83,12.44-5.6,17.71-2.96,7.73,3.88,5.81,25.84,5.37,31.68l-3.19,23.22,85.82-14.53,1.91-165.97-84.62,9.13s-1.15,7.37-5.28,24.87c-3.57,15.11-8.26,21.29-14.15,21.25-4.98-.03-7.26-9.06-7.28-13.51-.08-15.97-.48-34.07-.48-34.07,0,0-44.99,4.62-57.52,5.43l11.65,177.47Z"/>
    <path class="cls-5" d="M577.66,373.54c-3.3,41.17-9.42,84.98-22.61,124.22-13.32,39.64-37.78,78.8-85.32,56.03-36.08-17.29-51.96-77.55-58.6-113.99-1.24-6.8-7.99-55.06-5.88-57l74.03-.96c.4,18.25-.33,36.48,2.36,54.34,6.03,40.08,21.1,16.38,24.07-9.52,1.82-15.88,1.19-32.19,1.55-48.1,24.6-2.37,45.44-3.69,70.39-5.03Z"/>
    <path class="cls-5" d="M593.36,175.22s-1.94,46.51-2.73,53.14c-6.59,55.45-36.52,130.91-105.56,120.76-59.47-8.74-47.25-78.04-43.41-121.06,1.35-15.11,3.31-30.53,5.7-45.5l63.77-1.94c-1.21,7.66-1.88,13.6-2.75,21.9-.93,8.91-2.1,24.17-1.61,32.52.37,6.35,3.72,17.42,11.82,12.14,11.35-7.39,13.75-56.83,14.52-70.86l60.25-1.11Z"/>
    <path class="cls-5" d="M770.57,273.98c1.56,7.94,10.95,26.98,21.22,22.01,7.9-3.82-3.81-15.68-7.28-18.91-14.84-13.81-30.32-22.67-41.92-40.8-29.05-45.4,8.86-90.24,58.32-78.03,32.39,7.99,49.86,35.38,58.05,65.85l-44.61,13.59c-2.35-.39-11.72-25.95-23.73-28.53-6.61-1.42-10.29,1.35-8.4,8.14,3.45,12.4,41.99,31.42,52.65,41.54,17.45,16.58,30.75,40.52,24.96,64.88-15.73,66.22-89.95,55.62-111.56-.1-2.84-7.31-12.33-44.36-6.44-48.37,1.19-.81,27.55-2.09,28.75-1.3Z"/>
    <path class="cls-5" d="M739.68,313.5c-1.07-4.11-12.6-11.58-16.26-15.14-4.8-4.68-9.88-11.76-14.3-15.77-4.67-4.24-8.59,5.36-13.38,8.94-14.07,10.5-32.35,5.77-37.9-10.85,27.74.69,65.09-12.44,68.25-44.29,3.11-31.31-15.15-57.21-45.63-64.51-24.94-5.97-52.58-3.32-77.01,3.41l-1.02,184.28,35.71.41.2-17.54c5.23,2.18,8.19,6.78,13.3,9.92,25.98,15.97,59.2,10.25,76.78-14.74,2.64-3.75,12.22-20.41,11.25-24.12ZM641.83,253c-3.3-1.12-4.85-4.38-4.94-7.69-.29-11.05,11.33-42.93,24.09-43.94,21.66-1.71.06,58.13-19.15,51.63Z"/>
    <path class="cls-5" d="M435.13,224.51c-5.48-28.26-38.18-48.45-65.86-46.41-50.7,3.74-90.12,67.73-86.94,116.3,1.58,24.18,18.91,61.24,45.96,65.44,65.38,10.15,118.03-77.65,106.84-135.33ZM369.58,287.41c-1.4,17.26-11.36,13.69-19.43,2.77-9.39-12.71-17.5-40.72-15.89-56.32.86-8.28,1.83-13.29,6.8-14.99,6.04-2.06,15.25,13.64,17.61,18.39,6.4,12.9,12.06,35.86,10.91,50.14Z"/>
    <path class="cls-5" d="M119.92,174.34c-.56.66-1.26,1.1-2.11,1.32s-1.68.21-2.53-.03c-.84-.24-1.54-.69-2.11-1.35-.56-.66-.84-1.55-.84-2.68.04-3.09,0-8.73-.12-16.91-.12-8.14-.14-14.12-.06-17.94.04-1.4.49-2.44,1.35-3.1.86-.66,1.85-.97,2.95-.93,1.1.04,2.07.42,2.89,1.14.82.72,1.23,1.77,1.23,3.13-.08,3.05-.1,6.9-.06,11.56,8.22-.24,14.46-.36,18.72-.36,0-4.41.02-8.2.06-11.37.04-1.36.49-2.39,1.35-3.07.86-.68,1.85-1.01,2.95-.99,1.1.02,2.07.38,2.89,1.08.82.7,1.23,1.74,1.23,3.1-.04,2.61-.06,14.2-.06,34.79,0,1.12-.28,2.02-.84,2.68-.56.66-1.26,1.1-2.11,1.32-.84.22-1.69.22-2.53,0-.84-.22-1.54-.66-2.11-1.32-.56-.66-.84-1.55-.84-2.68v-15.11c-4.17-.04-10.37.08-18.6.36.08,6.58.12,11.5.12,14.75,0,1.08-.28,1.96-.84,2.62Z"/>
    <path class="cls-5" d="M155.99,168.49c-1.88-1.82-3.22-3.86-4.01-6.1-1.68-4.61-1.84-9.31-.49-14.09.71-2.64,1.69-5,2.94-7.1,1.26-2.09,2.77-4.01,4.55-5.74,1.72-1.7,3.79-3.06,6.19-4.08,2.4-1.02,4.91-1.51,7.54-1.48,1.03.06,2.16.27,3.39.64l1.21.36c.61.18,1.05.34,1.31.45.26.12.54.22.85.32,1.22.41,2.2.76,2.95,1.07.71.3,1.61.84,2.72,1.63,1.1.79,2.13,1.77,3.08,2.93,2.14,2.65,3.44,5.58,3.91,8.77.43,3.19.17,6.28-.77,9.29-.94,3.01-2.33,5.74-4.16,8.21-1.82,2.43-4.02,4.52-6.6,6.29-2.58,1.76-5.37,2.94-8.38,3.52-3,.59-6.06.35-9.18-.71-2.81-.97-5.16-2.36-7.04-4.18ZM170.77,165.07c1.75-.4,3.46-1.16,5.12-2.3,1.66-1.14,3.14-2.56,4.45-4.26,2.16-2.87,3.31-5.71,3.46-8.51.15-2.8-.57-5.2-2.15-7.18-.4-.5-.73-.88-1.01-1.15-.27-.27-.6-.55-.98-.83-.41-.29-.98-.57-1.7-.82-.72-.26-1.28-.47-1.69-.63-.41-.16-.7-.31-.87-.45-.18-.1-.54-.23-1.08-.39-.48-.23-1.01-.32-1.61-.29-3.03.18-5.71,1.34-8.04,3.47-2.33,2.13-4.01,5.03-5.03,8.7-.62,2.2-.79,4.29-.52,6.25.27,1.97.95,3.67,2.05,5.11,1.1,1.44,2.62,2.47,4.57,3.1,1.6.52,3.28.59,5.03.19Z"/>
    <path class="cls-5" d="M209.24,172.99c-.86-.56-1.44-1.35-1.74-2.37-1.23-3.55-3.19-8.96-5.87-16.24-2.43-6.78-4.56-12.72-6.38-17.82-.34-1.06-.34-1.98,0-2.78.35-.8.88-1.43,1.6-1.88.72-.45,1.52-.69,2.38-.71.86-.02,1.66.19,2.39.64.73.45,1.27,1.21,1.61,2.26,1.71,5.16,4.43,13.02,8.15,23.58,2.17-8.35,4.41-16.89,6.71-25.62.24-.83.7-1.51,1.37-2.04.67-.53,1.43-.83,2.27-.92.96-.09,1.86.1,2.72.58.86.52,1.8,2.39,2.84,5.59l5.42,11.63,3.51,8.79c.22-1.03.77-4.69,1.66-10.98.84-6.29,1.66-11.17,2.45-14.63.22-1.07.66-1.88,1.34-2.43.67-.55,1.44-.85,2.3-.92.86-.06,1.68.09,2.46.46.78.37,1.39.93,1.83,1.7.44.76.55,1.7.33,2.81-.8,3.42-1.55,7.51-2.26,12.25-.71,4.75-1.18,7.75-1.42,9.03l-1.65,7.36-1.32,6.96c-.16.86-.52,1.6-1.09,2.22-.56.62-1.26,1.01-2.09,1.17-1.01.38-1.99.37-2.93-.02-.94-.39-1.69-1.11-2.23-2.14-2.49-5.36-4.94-10.87-7.35-16.52-1.3-3.02-2.47-5.48-3.5-7.4l-6.64,25.74c-.27.95-.77,1.72-1.5,2.29-.73.58-1.58.85-2.55.82-1.02.26-1.97.11-2.83-.45Z"/>
    <path class="cls-5" d="M310.9,173.45c-.62.61-1.35.99-2.2,1.15-.85.16-1.69.09-2.52-.2-.83-.29-1.5-.78-2-1.49-.5-.71-.71-1.62-.61-2.75.22-2.6.59-10.29,1.12-23.08-3.17,3.57-6.3,7.4-9.42,11.49-.73.93-1.67,1.47-2.8,1.63-1.13.16-2.16-.11-3.09-.8-.12-.09-.21-.17-.29-.26-.43-.3-.79-.67-1.09-1.08l-8.63-12.16c.03.08-.15,3.91-.56,11.48-.45,7.61-.67,11.44-.68,11.48-.06,1.12-.39,2-.98,2.63-.6.63-1.32,1.04-2.17,1.21s-1.69.13-2.52-.14-1.51-.74-2.03-1.44c-.53-.69-.76-1.6-.7-2.72.09-1.68.26-4.51.52-8.47.06-1.2.14-2.59.22-4.18s.16-3.2.23-4.84c.07-1.64.14-3.19.22-4.63s.12-2.65.13-3.61c.07-2.85.09-5.8.05-8.86-.02-1.17.38-2.17,1.19-3.01.81-.84,1.8-1.27,2.96-1.29.6,0,1.16.1,1.67.33,1.11.22,1.99.81,2.62,1.77l12.44,17.48c4.65-5.78,9.35-10.95,14.09-15.52.92-1.4,2.2-2.03,3.84-1.9,1.16.1,2.12.6,2.87,1.48.76.88,1.08,1.91.98,3.07-.32,3.8-.64,9.61-.94,17.43-.3,7.86-.59,13.59-.86,17.19-.1,1.12-.46,1.98-1.07,2.59Z"/>
    <path class="cls-5" d="M317.67,165.57l10.6-35.71c.26-.79.71-1.45,1.35-1.98.64-.54,1.38-.86,2.22-.97.87-.23,1.75-.15,2.65.24.9.39,1.6.99,2.11,1.79l5.34,10.67,6.28,12.47,5.02,10.46c.48,1.01.62,1.93.41,2.77-.21.84-.65,1.55-1.31,2.13-.66.58-1.41.95-2.26,1.12-.85.17-1.68.09-2.5-.25s-1.48-.99-2-1.95l-4.13-7.63c-4.49.25-8.92.65-13.31,1.21l-2.29,8.16c-.43,1.16-1.16,1.98-2.18,2.44-1.03.47-2.09.55-3.18.26-1.09-.29-1.92-.98-2.49-2.06-.57-1.04-.68-2.1-.32-3.17ZM333.71,150.85l3.81-.31-3.89-8.38-2.71,8.92,2.79-.23Z"/>
    <path class="cls-5" d="M387.21,168.1c-2.69-3.17-6.08-7.86-10.17-14.08-4.45-6.3-7.6-10.57-9.45-12.82.04,1.61.14,5.16.3,10.65.16,5.54.24,10.13.24,13.78,0,1.12-.28,2.02-.84,2.68-.56.66-1.26,1.1-2.11,1.32-.84.22-1.68.22-2.53,0-.84-.22-1.54-.66-2.11-1.32-.56-.66-.84-1.55-.84-2.68,0-3.53-.1-9.25-.3-17.15-.24-7.86-.28-13.82-.12-17.88.04-1.16.48-2.15,1.32-2.95.84-.8,1.85-1.18,3.01-1.14.56.04,1.1.16,1.63.36.76.24,1.42.68,1.99,1.32.68.84,1.78,2.17,3.31,3.97,1.52,1.85,2.67,3.23,3.43,4.15,2.25,2.33,5.58,6.62,9.99,12.88l2.89,4.15c.12-9.31.14-16.87.06-22.69,0-1.36.41-2.4,1.23-3.1.82-.7,1.79-1.06,2.89-1.08,1.1-.02,2.09.31,2.95.99.86.68,1.31,1.71,1.35,3.07.04,5.46-.02,17.07-.18,34.85-.04,1.12-.44,2.08-1.2,2.86-.76.78-1.71,1.21-2.83,1.29-1.56.28-2.87-.2-3.91-1.44Z"/>
    <path class="cls-5" d="M413.34,161.45c-.04-1.72-.06-3.09-.06-4.09v-3.43l-6.02-9.99c-2.97-4.85-5.18-8.65-6.62-11.37-.52-.96-.7-1.87-.54-2.71.16-.84.55-1.56,1.17-2.17.62-.6,1.35-1,2.2-1.2.84-.2,1.68-.14,2.5.18.82.32,1.49.96,2.02,1.93,1.32,2.37,4.33,7.44,9.03,15.23l3.25-5.06,6.86-10.35c.56-.92,1.26-1.51,2.11-1.78.84-.26,1.68-.27,2.5-.03.82.24,1.53.67,2.14,1.29.6.62.96,1.36,1.08,2.23.12.86-.12,1.78-.72,2.74-.24.4-2.57,3.93-6.98,10.59-2.37,3.57-4.23,6.56-5.6,8.97.04.92.06,2.95.06,6.08s.02,5.42.06,6.86c.04,1.12-.21,2.03-.75,2.71-.54.68-1.23,1.14-2.08,1.38-.84.24-1.68.26-2.53.06-.84-.2-1.56-.62-2.14-1.26-.58-.64-.89-1.52-.93-2.65v-4.15Z"/>
    <path class="cls-5" d="M128.88,457.58c-3.1-1.81-5.55-4.09-7.34-6.82-3.74-5.59-5.49-11.8-5.25-18.62.08-3.74.62-7.21,1.6-10.42.99-3.2,2.38-6.24,4.18-9.13,1.74-2.83,4.05-5.32,6.91-7.46,2.86-2.14,6.05-3.62,9.57-4.43,1.39-.26,2.96-.35,4.72-.26l1.73.09c.88.05,1.51.11,1.89.18.38.08.79.12,1.23.15,1.76.15,3.18.3,4.28.47,1.04.16,2.42.59,4.15,1.29,1.73.69,3.42,1.66,5.06,2.9,3.71,2.83,6.4,6.31,8.07,10.41,1.61,4.11,2.28,8.32,2,12.63-.27,4.31-1.23,8.41-2.86,12.3-1.63,3.83-3.87,7.34-6.74,10.53-2.86,3.19-6.2,5.67-10.01,7.43-3.81,1.76-7.97,2.45-12.46,2.05-4.06-.37-7.64-1.46-10.75-3.27ZM147.46,448.19c2.2-1.1,4.23-2.68,6.07-4.74,1.84-2.05,3.35-4.43,4.54-7.13,1.94-4.53,2.55-8.69,1.83-12.47-.72-3.78-2.46-6.74-5.21-8.86-.69-.53-1.26-.93-1.72-1.2-.45-.27-.98-.53-1.57-.78-.65-.25-1.49-.43-2.53-.54-1.04-.11-1.86-.2-2.47-.29-.6-.08-1.04-.19-1.31-.31-.27-.07-.79-.12-1.56-.16-.71-.14-1.46-.1-2.24.13-3.98,1.23-7.17,3.64-9.59,7.24-2.42,3.6-3.7,8.01-3.86,13.24-.11,3.14.34,5.97,1.34,8.5,1,2.53,2.47,4.58,4.4,6.13,1.93,1.56,4.3,2.44,7.1,2.64,2.31.17,4.56-.29,6.77-1.39Z"/>
    <path class="cls-5" d="M180.05,446.77c-.04-2.83-.1-5.76-.18-8.79-.07-3.03-.15-5.86-.21-8.5-.1-1.59-.19-3.71-.28-6.35-.09-2.64-.22-5.43-.37-8.37-.16-2.94-.32-5.62-.49-8.04-.1-1.59.38-2.98,1.42-4.17,1.04-1.18,2.36-1.85,3.96-2h.41c7.59-.31,17.83-.56,30.7-.78,1.54-.04,2.9.51,4.09,1.63,1.24,1.24,1.84,2.61,1.8,4.13-.05,1.52-.59,2.85-1.64,4-1.04,1.16-2.42,1.75-4.13,1.8-10.24.15-18.49.32-24.76.54.2,3.52.37,7.2.52,11.05,7.76-.19,14.91-.45,21.45-.78,1.92-.05,3.38.48,4.37,1.58.99,1.1,1.52,2.41,1.58,3.92.06,1.51-.34,2.87-1.22,4.08-.88,1.21-2.25,1.86-4.12,1.96-6.6.28-13.83.54-21.7.79l.48,19.4c.04,1.54-.32,2.77-1.06,3.7-.75.93-1.69,1.56-2.84,1.89-1.15.33-2.3.36-3.47.09-1.16-.27-2.14-.86-2.93-1.74-.79-.89-1.21-2.1-1.25-3.64-.05-2.09-.1-4.55-.14-7.39Z"/>
    <path class="cls-5" d="M766.48,430.07c.23-4.32,1.35-7.23,3.1-10.38,3.27-5.95,8.17-10.39,14.71-13.31,6.42-3.03,13.07-4.67,19.96-4.9,7.01-.23,13.83.99,20.49,3.68,6.66,2.69,11.79,7.07,15.41,13.13,4.44,7.59,5.54,15.18,3.33,22.77-1.52,5.25-4.85,10.57-9.98,15.94l-5.78,5.43c-2.45,2.34-4.09,3.91-4.9,4.73-2.8,2.69-4.55,4.79-5.25,6.3-.12.47-.29,1.4-.53,2.8-.47,4.55-.7,6.95-.7,7.18-.59,3.15-1.84,5.58-3.77,7.27-1.93,1.69-4.15,2.66-6.66,2.89-2.51.24-4.93-.18-7.27-1.23-2.34-1.05-4.15-2.65-5.43-4.82-1.29-2.16-1.64-4.82-1.05-7.97.11-.7.23-1.69.35-2.98.12-1.28.23-2.22.35-2.8.35-3.85,1.11-7.12,2.28-9.81,1.87-4.55,5.37-9.34,10.51-14.36.82-.82,2.45-2.33,4.9-4.55,2.33-2.1,4.09-3.79,5.25-5.08,2.45-2.45,3.85-4.38,4.2-5.78.58-2.22-.67-4.17-3.77-5.87-3.09-1.69-6.86-2.48-11.3-2.36-3.5,0-6.45.56-8.84,1.66-2.39,1.11-4.06,2.31-4.99,3.59v1.05c-.12.24-.18.53-.18.88v1.93c0,1.75-.12,3.27-.35,4.55-.47,3.15-1.64,5.58-3.5,7.27-1.87,1.69-4.06,2.69-6.57,2.98-2.51.29-4.93-.06-7.27-1.05-2.34-.99-4.18-2.57-5.52-4.73-1.34-2.16-1.93-4.78-1.73-7.96.2-3.1.47-6.09.47-6.09ZM816.51,513.99c.23,2.51-.29,4.88-1.58,7.09-1.29,2.22-3.01,3.97-5.17,5.25-2.16,1.29-4.53,1.81-7.09,1.58-2.57-.23-4.96-1.52-7.18-3.85-2.34-2.22-3.62-4.61-3.85-7.18-.24-2.57.29-4.93,1.58-7.09,1.28-2.16,3.03-3.88,5.25-5.17,2.22-1.28,4.58-1.81,7.09-1.58,2.51.24,4.87,1.52,7.09,3.85,2.33,2.22,3.62,4.58,3.85,7.09Z"/>
  </g>
  <path class="cls-7" d="M1233.97,501.38c2.86,9.55,16.53,58.59-10.8,108.49-33.67,61.49-100.46,71.1-107.46,71.98,2.74,9.6,5.48,19.19,8.23,28.79,10.54,1.05,32.9,1.77,57.07-9.77,37.11-17.71,51.27-51.34,54.5-59.64.91,7.45,3.4,35.4-14.91,60.16-19.31,26.11-54.08,38.29-88.95,31.36,3.77,9.94,7.54,19.88,11.31,29.82,8.72,1.68,22.08,3.01,37.53-.51,33.07-7.54,51.42-31.75,56.56-39.08.05,4.02-.1,30.85-22.11,50.39-19.59,17.38-42.63,16.69-47.3,16.45,3.26,7.03,6.51,14.05,9.77,21.08,7.86-.26,19.01-1.62,31.25-6.64,23.57-9.68,36.59-26.94,41.78-34.77,6.77,62.13,13.53,124.26,20.3,186.4,18.04-2.9,36.07-5.8,54.11-8.7-12.08-67.32-24.16-134.63-36.23-201.95,4.52,3.38,19.08,13.38,40.23,13.29,21.36-.09,35.95-10.42,40.4-13.84l-1.12-29.55c-3.24,3.04-16.31,14.59-36.28,14.96-3.39.06-24.92.11-40.02-16.83-6.66-7.47-9.54-15.4-10.85-20.2,5.18,3.99,19.98,14.25,41.14,14.59,30.6.49,50.03-20.17,53.11-23.56-1.99-7.73-3.99-15.46-5.98-23.19-3.57,4.17-17.39,19.32-38.21,20.4-25.49,1.32-51.36-18.99-59.9-50.51,3.28,3.51,18.72,19.23,43.76,20.59,29.37,1.6,48.27-17.84,50.93-20.67-1.68-8.24-3.36-16.47-5.04-24.71-5.7,3.46-24.58,13.92-46.39,8.57-22.53-5.53-35.63-23.5-41.85-37.82-12.82-29.52-17.77-68.2-15.63-84.21-7.64,2.95-15.29,5.89-22.93,8.84Z"/>
  <g>
    <path class="cls-7" d="M343.11,1018.95c.18-1.41,2.59-18.95,16.95-26.43,12.85-6.7,25.25-1.77,26.97-1.05,1.75-11.19,6.76-31.8,22.76-43.42,3.73-2.71,6.2-3.59,7-3.85,19.88-6.59,42.72,19.17,45.53,22.41-1.66-6.17-3.29-16.32.4-26.93,2.68-7.69,6.16-9.89,7.11-10.45,5.36-3.13,11.51-1.35,12.91-.94,14.28,4.14,18.08,22.4,22.06,21.36,3.83-1.01.67-17.99,8.6-38.01,1.37-3.46,3.33-7.67,7.6-9.87,6.02-3.11,13.02-.36,15.73.7,20.06,7.87,25.99,60.52,26.29,63.37-8.75,19.48-17.99,41.25-26.73,60.73-64.5-2.49-128.67-5.14-193.16-7.62Z"/>
    <polyline class="cls-2" points="327.01 946.83 355.78 955.62 372.49 995.07"/>
    <line class="cls-2" x1="366.74" y1="890.94" x2="428.63" y2="959.29"/>
    <line class="cls-2" x1="398.49" y1="847.08" x2="398.22" y2="923.23"/>
    <polyline class="cls-2" points="330.15 823.13 343.33 859.46 396.61 885.83"/>
  </g>
  <g>
    <polygon class="cls-5" points="1133.61 853.94 1184.68 1021.27 918.67 1030.3 869.49 688 1022.07 472.19 1133.61 853.94"/>
    <polygon class="cls-6" points="582.45 794.65 532.96 1026.64 918.67 1030.3 892.8 784.34 582.45 794.65"/>
    <polygon class="cls-12" points="543.79 809.83 897.47 855.86 1021.01 421.42 936.23 413.35 866.74 483.57 736.98 489.29 671.08 667.92 543.79 809.83"/>
    <polygon class="cls-15" points="543.79 809.83 897.47 855.86 1021.01 421.42 1023.87 421.68 1147.43 845.96 1133.61 853.94 1023.03 499.35 917.76 883.01 544.74 829.95 543.79 809.83"/>
    <polygon class="cls-13" points="748.41 525.46 689.18 682.1 726.27 663.28 814.83 673.79 748.41 525.46"/>
    <g class="cls-16">
      <polygon class="cls-5" points="760.73 544.37 725.14 667.83 830.77 685.43 760.73 544.37"/>
    </g>
    <ellipse class="cls-13" cx="670.19" cy="939.41" rx="61.22" ry="28.29"/>
    <ellipse class="cls-13" cx="818.31" cy="937.17" rx="62.47" ry="28.29" transform="translate(-86.75 83.48) rotate(-5.55)"/>
    <ellipse class="cls-15" cx="1056.77" cy="890.15" rx="9.55" ry="9.85"/>
    <g class="cls-9">
      <path class="cls-3" d="M1024.93,1038.11c-10.67-98.44-18.66-169.95-29.33-268.39-.7-11.37-3.19-46.91-2.41-54.83.51-5.22.66-9.98,5.47-18.09,2.77-4.66,7.29-8.13,12.25-8.84,7.27-1.05,17.48,5.08,20.63,16.68,28.62,105.38,52.87,218.01,80.18,325.72"/>
    </g>
    <g class="cls-11">
      <ellipse class="cls-8" cx="845.45" cy="921.31" rx="27.27" ry="26.37"/>
    </g>
    <g class="cls-10">
      <ellipse class="cls-8" cx="694.09" cy="926.75" rx="27" ry="26.34"/>
    </g>
  </g>
  <g>
    <path class="cls-13" d="M1164.51,1001.93c-.15-17.06,3.22-30.47,6.04-38.95,0,0,7.65-23.05,22.95-38.35,1.52-1.52,3.6-3.42,6.64-5.13,9.39-5.27,18.91-3.63,20.53-3.32,9.07,1.71,14.68,7.04,16.61,9.06,4.16-14.04,14.42-42.13,38.62-66.69,16.19-16.44,33.12-25.7,38.02-28.28,4.83-2.55,11.45-5.99,20.67-8.96,12.05-3.88,32.33-9.89,55.12-3.1,8.61,2.57,22.84,7.43,34.1,24.46,10.3,15.57,10.44,31.74,9.59,48.24-.65,12.52-4.48,33.84-17.17,58.21,4.81-1.79,11.24-4.83,19.62-6.15,9.03-1.42,16.93-.57,22.39.69,5.08,1.17,10.07,3.06,17.02,12.03,10.39,13.4,7.37,38.55-8.62,61.49-100.71-5.08-201.42-10.16-302.13-15.25Z"/>
    <ellipse class="cls-4" cx="1364.18" cy="1012.88" rx="33.27" ry="17.73" transform="translate(-114.49 1849.81) rotate(-66.1)"/>
    <ellipse class="cls-4" cx="1278.15" cy="1006.02" rx="34.61" ry="18.74" transform="translate(-232.16 1609.93) rotate(-60)"/>
    <path class="cls-12" d="M1408.17,880.57c-13.46-11.85-39.04-5.92-52.16,10.81-.73.93-1.43,1.88-2.09,2.84.98-7.82-1.01-14.63-5.91-18.91-12.35-10.79-37.7-3.27-51.6,14.1-12.83,16.03-16.49,35.44-5.65,45.48,10.85,10.05,29.79,4.77,44.92-9.1,4.09-3.75,7.49-7.71,10.21-11.73-1.2,8.93,1.03,17.35,7.43,23.28,11.86,10.98,31,6.91,45.62-6.19,18.91-16.94,21.35-39.91,9.22-50.59Z"/>
  </g>
</svg>